<?xml version="1.0" encoding="utf-8"?>
<!-- Generator: Adobe Illustrator 17.0.0, SVG Export Plug-In . SVG Version: 6.00 Build 0)  -->
<!DOCTYPE svg PUBLIC "-//W3C//DTD SVG 1.1//EN" "http://www.w3.org/Graphics/SVG/1.1/DTD/svg11.dtd">
<svg version="1.1" id="图层_1" xmlns="http://www.w3.org/2000/svg" xmlns:xlink="http://www.w3.org/1999/xlink" x="0px" y="0px"
	 width="1920px" height="310px" viewBox="0 0 1920 310" enable-background="new 0 0 1920 310" xml:space="preserve">
<polyline opacity="0.8" fill="#FFFFFF" stroke="#8A99A2" stroke-width="0.7" stroke-linecap="round" stroke-linejoin="round" stroke-miterlimit="10" points="
	239.575,229.661 150.869,259.408 240.772,259.408 "/>
<polygon opacity="0.8" fill="none" stroke="#8A99A2" stroke-width="0.7" stroke-linecap="round" stroke-linejoin="round" stroke-miterlimit="10" points="
	150.869,259.408 0,310 106.667,310 240.772,259.408 "/>
<polyline opacity="0.8" fill="#FFFFFF" stroke="#8A99A2" stroke-width="0.7" stroke-linecap="round" stroke-linejoin="round" stroke-miterlimit="10" points="
	318.621,259.408 240.772,259.408 106.667,310 213.333,310 318.621,264.605 "/>
<polyline opacity="0.8" fill="none" stroke="#8A99A2" stroke-width="0.7" stroke-linecap="round" stroke-linejoin="round" stroke-miterlimit="10" points="
	318.621,264.605 213.333,310 318.621,310 "/>
<g>
	
		<polyline opacity="0.8" fill="none" stroke="#8A99A2" stroke-width="0.7" stroke-linecap="round" stroke-linejoin="round" stroke-miterlimit="10" points="
		511.721,213.563 549.106,194.758 511.721,194.758 	"/>
	
		<polyline opacity="0.8" fill="#FFFFFF" stroke="#8A99A2" stroke-width="0.7" stroke-linecap="round" stroke-linejoin="round" stroke-miterlimit="10" points="
		571.532,222.558 617.588,194.758 549.106,194.758 511.721,213.563 	"/>
	
		<polyline opacity="0.8" fill="none" stroke="#8A99A2" stroke-width="0.7" stroke-linecap="round" stroke-linejoin="round" stroke-miterlimit="10" points="
		511.721,258.66 571.024,222.864 571.024,222.864 511.721,222.864 	"/>
	
		<polyline opacity="0.8" fill="none" stroke="#8A99A2" stroke-width="0.7" stroke-linecap="round" stroke-linejoin="round" stroke-miterlimit="10" points="
		649.226,222.558 649.226,222.558 686.071,194.758 617.588,194.758 571.532,222.558 	"/>
	
		<rect x="570.982" y="222.711" transform="matrix(-0.8561 0.5168 -0.5168 -0.8561 1175.4541 118.1621)" opacity="0.8" fill="none" stroke="#8A99A2" stroke-width="0.7" stroke-linecap="round" stroke-linejoin="round" stroke-miterlimit="10" width="0.593" height="0"/>
	
		<polyline opacity="0.8" fill="#FFFFFF" stroke="#8A99A2" stroke-width="0.7" stroke-linecap="round" stroke-linejoin="round" stroke-miterlimit="10" points="
		726.919,222.558 754.553,194.758 686.071,194.758 649.226,222.558 	"/>
	
		<rect x="648.768" y="222.711" transform="matrix(-0.7982 0.6023 -0.6023 -0.7982 1301.2493 9.5663)" opacity="0.8" fill="none" stroke="#8A99A2" stroke-width="0.7" stroke-linecap="round" stroke-linejoin="round" stroke-miterlimit="10" width="0.509" height="0"/>
	
		<polygon opacity="0.8" fill="#FFFFFF" stroke="#8A99A2" stroke-width="0.7" stroke-linecap="round" stroke-linejoin="round" stroke-miterlimit="10" points="
		600.386,259.408 533.333,310 640,310 690.29,259.408 	"/>
	
		<polyline opacity="0.8" fill="none" stroke="#8A99A2" stroke-width="0.7" stroke-linecap="round" stroke-linejoin="round" stroke-miterlimit="10" points="
		804.613,222.558 804.613,222.558 823.035,194.758 754.553,194.758 726.919,222.558 	"/>
	
		<rect x="726.551" y="222.711" transform="matrix(-0.705 0.7092 -0.7092 -0.705 1397.0844 -135.7089)" opacity="0.8" fill="none" stroke="#8A99A2" stroke-width="0.7" stroke-linecap="round" stroke-linejoin="round" stroke-miterlimit="10" width="0.432" height="0"/>
	
		<polyline opacity="0.8" fill="#FFFFFF" stroke="#8A99A2" stroke-width="0.7" stroke-linecap="round" stroke-linejoin="round" stroke-miterlimit="10" points="
		882.306,222.558 891.518,194.758 823.035,194.758 804.613,222.558 	"/>
	
		<polygon opacity="0.8" fill="none" stroke="#8A99A2" stroke-width="0.7" stroke-linecap="round" stroke-linejoin="round" stroke-miterlimit="10" points="
		882.205,222.864 804.41,222.864 804.41,222.864 780.193,259.408 870.097,259.408 882.205,222.864 	"/>
	
		<rect x="804.327" y="222.711" transform="matrix(-0.5524 0.8336 -0.8336 -0.5524 1434.553 -324.9075)" opacity="0.8" fill="none" stroke="#8A99A2" stroke-width="0.7" stroke-linecap="round" stroke-linejoin="round" stroke-miterlimit="10" width="0.368" height="0"/>
	
		<polyline opacity="0.8" fill="none" stroke="#8A99A2" stroke-width="0.7" stroke-linecap="round" stroke-linejoin="round" stroke-miterlimit="10" points="
		960,222.558 960,194.758 891.518,194.758 882.306,222.558 882.306,222.558 	"/>
	
		<rect x="882.094" y="222.711" transform="matrix(-0.3146 0.9492 -0.9492 -0.3146 1371.2112 -544.6858)" opacity="0.8" fill="none" stroke="#8A99A2" stroke-width="0.7" stroke-linecap="round" stroke-linejoin="round" stroke-miterlimit="10" width="0.323" height="0"/>
	
		<polygon opacity="0.8" fill="#FFFFFF" stroke="#8A99A2" stroke-width="0.7" stroke-linecap="round" stroke-linejoin="round" stroke-miterlimit="10" points="
		882.205,222.864 870.097,259.408 960,259.408 960,222.864 	"/>
	
		<polygon opacity="0.8" fill="none" stroke="#8A99A2" stroke-width="0.7" stroke-linecap="round" stroke-linejoin="round" stroke-miterlimit="10" points="
		870.097,259.408 853.333,310 960,310 960,259.408 	"/>
	
		<polyline opacity="0.8" fill="#FFFFFF" stroke="#8A99A2" stroke-width="0.7" stroke-linecap="round" stroke-linejoin="round" stroke-miterlimit="10" points="
		1037.693,222.558 1037.693,222.558 1028.482,194.758 960,194.758 960,222.558 	"/>
	
		<polygon opacity="0.8" fill="none" stroke="#8A99A2" stroke-width="0.7" stroke-linecap="round" stroke-linejoin="round" stroke-miterlimit="10" points="
		960,222.864 960,259.408 1049.903,259.408 1037.795,222.864 	"/>
	
		<polygon opacity="0.8" fill="#FFFFFF" stroke="#8A99A2" stroke-width="0.7" stroke-linecap="round" stroke-linejoin="round" stroke-miterlimit="10" points="
		960,259.408 960,310 1066.667,310 1049.903,259.408 	"/>
	
		<polyline opacity="0.8" fill="none" stroke="#8A99A2" stroke-width="0.7" stroke-linecap="round" stroke-linejoin="round" stroke-miterlimit="10" points="
		1115.387,222.558 1096.965,194.758 1028.482,194.758 1037.693,222.558 	"/>
	
		<polygon opacity="0.8" fill="#FFFFFF" stroke="#8A99A2" stroke-width="0.7" stroke-linecap="round" stroke-linejoin="round" stroke-miterlimit="10" points="
		1115.59,222.864 1037.795,222.864 1037.795,222.864 1049.903,259.408 1139.807,259.408 1115.59,222.864 	"/>
	
		<rect x="1037.583" y="222.711" transform="matrix(0.3149 0.9491 -0.9491 0.3149 922.2899 -832.3643)" opacity="0.8" fill="none" stroke="#8A99A2" stroke-width="0.7" stroke-linecap="round" stroke-linejoin="round" stroke-miterlimit="10" width="0.323" height="0"/>
	
		<polygon opacity="0.8" fill="none" stroke="#8A99A2" stroke-width="0.7" stroke-linecap="round" stroke-linejoin="round" stroke-miterlimit="10" points="
		1049.903,259.408 1066.667,310 1173.333,310 1139.807,259.408 	"/>
	
		<polyline opacity="0.8" fill="#FFFFFF" stroke="#8A99A2" stroke-width="0.7" stroke-linecap="round" stroke-linejoin="round" stroke-miterlimit="10" points="
		1193.081,222.558 1193.081,222.558 1165.447,194.758 1096.965,194.758 1115.387,222.558 	"/>
	
		<rect x="1115.305" y="222.711" transform="matrix(0.5523 0.8337 -0.8337 0.5523 685.1237 -830.2379)" opacity="0.8" fill="none" stroke="#8A99A2" stroke-width="0.7" stroke-linecap="round" stroke-linejoin="round" stroke-miterlimit="10" width="0.368" height="0"/>
	
		<polygon opacity="0.8" fill="none" stroke="#8A99A2" stroke-width="0.7" stroke-linecap="round" stroke-linejoin="round" stroke-miterlimit="10" points="
		1115.59,222.864 1139.807,259.408 1229.71,259.408 1193.385,222.864 	"/>
	
		<polyline opacity="0.8" fill="none" stroke="#8A99A2" stroke-width="0.7" stroke-linecap="round" stroke-linejoin="round" stroke-miterlimit="10" points="
		1270.774,222.558 1233.929,194.758 1165.447,194.758 1193.081,222.558 	"/>
	
		<polygon opacity="0.8" fill="#FFFFFF" stroke="#8A99A2" stroke-width="0.7" stroke-linecap="round" stroke-linejoin="round" stroke-miterlimit="10" points="
		1271.181,222.864 1193.385,222.864 1193.385,222.864 1229.71,259.408 1319.614,259.408 1271.181,222.864 	"/>
	
		<rect x="1193.017" y="222.711" transform="matrix(0.7049 0.7093 -0.7093 0.7049 510.0593 -780.6229)" opacity="0.8" fill="none" stroke="#8A99A2" stroke-width="0.7" stroke-linecap="round" stroke-linejoin="round" stroke-miterlimit="10" width="0.432" height="0"/>
	
		<polygon opacity="0.8" fill="none" stroke="#8A99A2" stroke-width="0.7" stroke-linecap="round" stroke-linejoin="round" stroke-miterlimit="10" points="
		1229.71,259.408 1280,310 1386.667,310 1319.614,259.408 	"/>
	
		<polyline opacity="0.8" fill="#FFFFFF" stroke="#8A99A2" stroke-width="0.7" stroke-linecap="round" stroke-linejoin="round" stroke-miterlimit="10" points="
		1348.468,222.558 1348.468,222.558 1302.412,194.758 1233.929,194.758 1270.774,222.558 1270.774,222.558 	"/>
	
		<rect x="1270.723" y="222.711" transform="matrix(0.7982 0.6023 -0.6023 0.7982 390.565 -720.6118)" opacity="0.8" fill="none" stroke="#8A99A2" stroke-width="0.7" stroke-linecap="round" stroke-linejoin="round" stroke-miterlimit="10" width="0.509" height="0"/>
	
		<polygon opacity="0.8" fill="none" stroke="#8A99A2" stroke-width="0.7" stroke-linecap="round" stroke-linejoin="round" stroke-miterlimit="10" points="
		1271.181,222.864 1319.614,259.408 1409.517,259.408 1348.976,222.864 	"/>
	
		<polygon opacity="0.8" fill="#FFFFFF" stroke="#8A99A2" stroke-width="0.7" stroke-linecap="round" stroke-linejoin="round" stroke-miterlimit="10" points="
		1319.614,259.408 1386.667,310 1493.333,310 1409.517,259.408 	"/>
	
		<polygon opacity="0.8" fill="#FFFFFF" stroke="#8A99A2" stroke-width="0.7" stroke-linecap="round" stroke-linejoin="round" stroke-miterlimit="10" points="
		571.024,222.864 511.721,258.66 510.483,259.408 511.721,259.408 600.386,259.408 648.819,222.864 	"/>
	
		<polygon opacity="0.8" fill="none" stroke="#8A99A2" stroke-width="0.7" stroke-linecap="round" stroke-linejoin="round" stroke-miterlimit="10" points="
		511.721,259.408 510.483,259.408 426.667,310 511.721,310 533.333,310 600.386,259.408 	"/>
	
		<polygon opacity="0.8" fill="#FFFFFF" stroke="#8A99A2" stroke-width="0.7" stroke-linecap="round" stroke-linejoin="round" stroke-miterlimit="10" points="
		1139.807,259.408 1173.333,310 1280,310 1229.71,259.408 	"/>
	
		<polygon opacity="0.8" fill="#FFFFFF" stroke="#8A99A2" stroke-width="0.7" stroke-linecap="round" stroke-linejoin="round" stroke-miterlimit="10" points="
		726.615,222.864 690.29,259.408 780.193,259.408 804.41,222.864 	"/>
	
		<polygon opacity="0.8" fill="#FFFFFF" stroke="#8A99A2" stroke-width="0.7" stroke-linecap="round" stroke-linejoin="round" stroke-miterlimit="10" points="
		780.193,259.408 746.667,310 853.333,310 870.097,259.408 	"/>
	
		<polygon opacity="0.8" fill="none" stroke="#8A99A2" stroke-width="0.7" stroke-linecap="round" stroke-linejoin="round" stroke-miterlimit="10" points="
		726.615,222.864 648.819,222.864 648.819,222.864 600.386,259.408 690.29,259.408 726.615,222.864 	"/>
	
		<polygon opacity="0.8" fill="none" stroke="#8A99A2" stroke-width="0.7" stroke-linecap="round" stroke-linejoin="round" stroke-miterlimit="10" points="
		690.29,259.408 640,310 746.667,310 780.193,259.408 	"/>
</g>
<polyline opacity="0.8" fill="#FFFFFF" stroke="#8A99A2" stroke-width="0.7" stroke-linecap="round" stroke-linejoin="round" stroke-miterlimit="10" points="
	1603.044,310 1706.667,310 1602.316,265.009 "/>
<polyline opacity="0.8" fill="#FFFFFF" stroke="#8A99A2" stroke-width="0.7" stroke-linecap="round" stroke-linejoin="round" stroke-miterlimit="10" points="
	1601.55,259.408 1679.228,259.408 1601.55,230.103 "/>
<polyline opacity="0.8" fill="none" stroke="#8A99A2" stroke-width="0.7" stroke-linecap="round" stroke-linejoin="round" stroke-miterlimit="10" points="
	1601.55,264.679 1706.667,310 1813.333,310 1679.228,259.408 1601.55,259.408 "/>
<polyline opacity="0.8" fill="#FFFFFF" stroke="#8A99A2" stroke-width="0.7" stroke-miterlimit="10" points="1659.171,222.566 
	1660.06,222.864 1660.06,222.864 1603.25,203.814 "/>
<polygon opacity="0.8" fill="#FFFFFF" stroke="#8A99A2" stroke-width="0.7" stroke-linecap="round" stroke-linejoin="round" stroke-miterlimit="10" points="
	1769.131,259.408 1679.228,259.408 1813.333,310 1920,310 "/>
<polyline opacity="0.8" fill="none" stroke="#8A99A2" stroke-width="0.7" stroke-linecap="round" stroke-linejoin="round" stroke-miterlimit="10" points="
	1601.55,230.103 1679.228,259.408 1769.131,259.408 1660.156,222.864 1601.55,222.864 "/>
<linearGradient id="SVGID_1_" gradientUnits="userSpaceOnUse" x1="960" y1="318.7451" x2="960" y2="126.4821">
	<stop  offset="0" style="stop-color:#F5F5F5;stop-opacity:0"/>
	<stop  offset="1" style="stop-color:#F5F5F5"/>
</linearGradient>
<rect y="151.49" fill="url(#SVGID_1_)" width="1920" height="158.51"/>
<path opacity="0.8" fill="none" stroke="#999999" stroke-width="0.7" stroke-linecap="round" stroke-linejoin="round" stroke-miterlimit="10" d="
	M414.166,142.794h82.353c7.712,0,13.963,6.252,13.963,13.963v102.651"/>
<polygon opacity="0.8" fill="none" stroke="#8A99A2" stroke-width="0.7" stroke-linecap="round" stroke-linejoin="round" stroke-miterlimit="10" points="
	1302.412,97.332 1348.976,125.132 1348.976,222.558 1302.412,194.758 "/>
<polyline opacity="0.8" fill="none" stroke="#8A99A2" stroke-width="0.7" stroke-linecap="round" stroke-linejoin="round" stroke-miterlimit="10" points="
	1407.985,125.132 1348.976,125.132 1302.412,97.332 1355.856,97.332 "/>
<polyline opacity="0.8" fill="none" stroke="#8A99A2" stroke-width="0.7" stroke-linecap="round" stroke-linejoin="round" stroke-miterlimit="10" points="
	311.537,14.192 326.242,7.852 416.145,7.852 330.676,44.702 240.772,44.702 258.815,36.923 "/>
<path opacity="0.8" fill="none" stroke="#8A99A2" stroke-width="1.2" stroke-linecap="round" stroke-linejoin="round" stroke-miterlimit="10" d="
	M9.745,76.942h24.87c2.09-9.151,10.262-15.985,20.046-15.985c2.145,0,4.213,0.33,6.157,0.939
	c4.246-15.161,18.156-26.284,34.672-26.284c19.89,0,36.013,16.124,36.013,36.013c0,1.807-0.137,3.581-0.394,5.316h25.003"/>
<path opacity="0.8" fill="none" stroke="#8A99A2" stroke-width="0.7" stroke-linecap="round" stroke-linejoin="round" stroke-miterlimit="10" d="
	M125.752,114.882h14.736c1.238-5.422,6.08-9.471,11.878-9.471c1.271,0,2.496,0.196,3.648,0.556
	c2.516-8.983,10.758-15.573,20.544-15.573c11.785,0,21.338,9.553,21.338,21.338c0,1.07-0.081,2.122-0.233,3.15h14.814"/>
<path opacity="0.8" fill="none" stroke="#8A99A2" stroke-width="0.7" stroke-linecap="round" stroke-linejoin="round" stroke-miterlimit="10" d="
	M1769.131,74.371h17.775c1.494-6.54,7.335-11.425,14.327-11.425c1.533,0,3.011,0.236,4.401,0.671
	c3.035-10.836,12.976-18.785,24.781-18.785c14.216,0,25.739,11.524,25.739,25.739c0,1.291-0.098,2.559-0.281,3.8h17.87"/>
<path opacity="0.8" fill="none" stroke="#8A99A2" stroke-width="1.2" stroke-linecap="round" stroke-linejoin="round" stroke-miterlimit="10" d="
	M1637.199,125.132h24.792c2.083-9.122,10.23-15.935,19.983-15.935c2.139,0,4.2,0.329,6.138,0.936
	c4.233-15.113,18.099-26.201,34.563-26.201c19.827,0,35.9,16.073,35.9,35.9c0,1.801-0.136,3.57-0.392,5.3h24.924"/>
<path opacity="0.8" fill="none" stroke="#8A99A2" stroke-width="0.7" stroke-linecap="round" stroke-linejoin="round" stroke-miterlimit="10" d="
	M649.073,110.638h-12.663c-1.064-4.659-5.225-8.139-10.206-8.139c-1.092,0-2.145,0.168-3.135,0.478
	c-2.162-7.719-9.244-13.382-17.653-13.382c-10.127,0-18.336,8.209-18.336,18.336c0,0.92,0.07,1.823,0.2,2.707h-12.73"/>
<path opacity="0.8" fill="none" stroke="#8A99A2" stroke-width="0.7" stroke-linecap="round" stroke-linejoin="round" stroke-miterlimit="10" d="
	M622.707,64.648h-30.645c-2.575-11.275-12.645-19.697-24.701-19.697c-2.643,0-5.191,0.407-7.587,1.157
	c-5.232-18.681-22.372-32.387-42.723-32.387c-24.508,0-44.376,19.868-44.376,44.376c0,2.226,0.169,4.413,0.485,6.551h-30.808"/>
<g opacity="0.8">
	<g>
		
			<path fill="#FFFFFF" stroke="#8A99A2" stroke-width="0.7" stroke-linecap="round" stroke-linejoin="round" stroke-miterlimit="10" d="
			M287.751,18.805l2.374,0.6c0.312,1.216,0.79,2.362,1.414,3.415l-1.256,2.106c1.031,1.471,2.311,2.751,3.781,3.782l2.106-1.256
			c1.053,0.624,2.199,1.102,3.415,1.414l0.6,2.373c0.87,0.153,1.761,0.248,2.675,0.248s1.805-0.095,2.675-0.248l0.6-2.373
			c1.216-0.312,2.362-0.79,3.415-1.414l2.106,1.256c1.471-1.031,2.751-2.311,3.781-3.781l-1.256-2.106
			c0.624-1.053,1.102-2.199,1.414-3.415l2.373-0.6c0.153-0.87,0.248-1.761,0.248-2.675c0-0.914-0.095-1.805-0.248-2.675l-2.373-0.6
			c-0.312-1.216-0.79-2.362-1.414-3.415l1.256-2.106c-1.031-1.471-2.311-2.751-3.781-3.781l-2.106,1.256
			c-1.053-0.624-2.199-1.102-3.415-1.414l-0.6-2.374c-0.87-0.153-1.761-0.248-2.675-0.248s-1.805,0.095-2.675,0.248l-0.6,2.373
			c-1.216,0.312-2.362,0.79-3.415,1.414l-2.106-1.256c-1.471,1.031-2.751,2.311-3.781,3.781l1.256,2.106
			c-0.624,1.053-1.102,2.199-1.414,3.415l-2.374,0.6c-0.153,0.87-0.248,1.761-0.248,2.675
			C287.503,17.044,287.598,17.935,287.751,18.805z"/>
		
			<circle fill="#FFFFFF" stroke="#8A99A2" stroke-width="0.7" stroke-linecap="round" stroke-linejoin="round" stroke-miterlimit="10" cx="302.86" cy="16.13" r="7.679"/>
	</g>
	<g>
		
			<path fill="#FFFFFF" stroke="#8A99A2" stroke-width="0.7" stroke-linecap="round" stroke-linejoin="round" stroke-miterlimit="10" d="
			M288.579,34.763l2.374-0.6c0.153-0.87,0.248-1.761,0.248-2.675c0-0.914-0.095-1.805-0.248-2.675l-2.374-0.6
			c-0.312-1.216-0.79-2.362-1.414-3.415l1.256-2.106c-1.031-1.471-2.311-2.751-3.781-3.781l-2.106,1.256
			c-1.053-0.624-2.199-1.102-3.415-1.414l-0.6-2.374c-0.87-0.153-1.761-0.248-2.675-0.248s-1.805,0.095-2.675,0.248l-0.6,2.373
			c-1.216,0.312-2.362,0.79-3.415,1.414l-2.106-1.256c-1.471,1.031-2.751,2.311-3.781,3.781l1.256,2.106
			c-0.624,1.053-1.102,2.199-1.414,3.415l-2.373,0.6c-0.153,0.87-0.248,1.761-0.248,2.675c0,0.914,0.095,1.805,0.248,2.675
			l2.373,0.6"/>
		
			<path fill="#FFFFFF" stroke="#8A99A2" stroke-width="0.7" stroke-linecap="round" stroke-linejoin="round" stroke-miterlimit="10" d="
			M268.897,34.764c-0.47-0.994-0.732-2.104-0.732-3.276c0-4.241,3.438-7.679,7.679-7.679c4.241,0,7.679,3.438,7.679,7.679
			c0,1.06-0.215,2.07-0.603,2.989"/>
	</g>
	<g>
		
			<path fill="#FFFFFF" stroke="#8A99A2" stroke-width="0.7" stroke-linecap="round" stroke-linejoin="round" stroke-miterlimit="10" d="
			M342.614,34.605l2.374-0.6c0.153-0.87,0.248-1.761,0.248-2.675c0-0.914-0.095-1.805-0.248-2.675l-2.374-0.6
			c-0.312-1.216-0.79-2.362-1.414-3.415l1.256-2.106c-1.031-1.471-2.311-2.751-3.781-3.781l-2.106,1.256
			c-1.053-0.624-2.199-1.102-3.415-1.414l-0.6-2.374c-0.87-0.153-1.761-0.248-2.675-0.248c-0.914,0-1.805,0.095-2.675,0.248
			l-0.6,2.373c-1.216,0.312-2.362,0.79-3.415,1.414l-2.106-1.256c-1.471,1.031-2.751,2.311-3.781,3.781l1.255,2.106
			c-0.624,1.053-1.102,2.199-1.414,3.415l-2.374,0.6c-0.153,0.87-0.248,1.761-0.248,2.675c0,0.914,0.095,1.805,0.248,2.675
			l2.374,0.6"/>
		
			<path fill="#FFFFFF" stroke="#8A99A2" stroke-width="0.7" stroke-linecap="round" stroke-linejoin="round" stroke-miterlimit="10" d="
			M323.007,34.763c-0.517-1.033-0.809-2.199-0.809-3.434c0-4.241,3.438-7.679,7.679-7.679c4.241,0,7.679,3.438,7.679,7.679
			c0,1.236-0.292,2.403-0.81,3.437"/>
	</g>
</g>
<polyline opacity="0.8" fill="none" stroke="#8A99A2" stroke-width="0.7" stroke-linecap="round" stroke-linejoin="round" stroke-miterlimit="10" points="
	330.676,184.438 330.676,44.702 416.145,7.852 416.145,140.451 "/>
<polyline opacity="0.8" fill="none" stroke="#8A99A2" stroke-width="0.7" stroke-linecap="round" stroke-linejoin="round" stroke-miterlimit="10" points="
	330.676,184.438 330.676,44.702 240.772,44.702 240.772,259.408 318.193,259.408 "/>
<path opacity="0.8" fill="#FFFFFF" stroke="#8A99A2" stroke-width="0.7" stroke-linecap="round" stroke-linejoin="round" stroke-miterlimit="10" d="
	M262.401,106.954h-3.831c-0.55,0-1-0.45-1-1v-7.261c0-0.55,0.45-1,1-1h3.831c0.55,0,1,0.45,1,1v7.261
	C263.401,106.504,262.951,106.954,262.401,106.954z"/>
<path opacity="0.8" fill="#FFFFFF" stroke="#8A99A2" stroke-width="0.7" stroke-linecap="round" stroke-linejoin="round" stroke-miterlimit="10" d="
	M277.467,104.896h-3.528c-0.728,0-1.323-0.595-1.323-1.323v-4.557c0-0.728,0.595-1.323,1.323-1.323h3.528
	c0.728,0,1.323,0.595,1.323,1.323v4.557C278.79,104.301,278.195,104.896,277.467,104.896z"/>
<g opacity="0.8">
	
		<rect x="287.319" y="97.693" fill="#FFFFFF" stroke="#8A99A2" stroke-width="0.7" stroke-linecap="round" stroke-linejoin="round" stroke-miterlimit="10" width="9.261" height="9.261"/>
	
		<line fill="#FFFFFF" stroke="#8A99A2" stroke-width="0.7" stroke-linecap="round" stroke-linejoin="round" stroke-miterlimit="10" x1="289.634" y1="97.693" x2="289.634" y2="106.954"/>
	
		<line fill="#FFFFFF" stroke="#8A99A2" stroke-width="0.7" stroke-linecap="round" stroke-linejoin="round" stroke-miterlimit="10" x1="291.949" y1="97.693" x2="291.949" y2="106.954"/>
	
		<line fill="#FFFFFF" stroke="#8A99A2" stroke-width="0.7" stroke-linecap="round" stroke-linejoin="round" stroke-miterlimit="10" x1="294.264" y1="97.693" x2="294.264" y2="106.954"/>
</g>
<g opacity="0.8">
	
		<rect x="304.853" y="97.693" fill="#FFFFFF" stroke="#8A99A2" stroke-width="0.7" stroke-linecap="round" stroke-linejoin="round" stroke-miterlimit="10" width="6.684" height="9.261"/>
	
		<line fill="#FFFFFF" stroke="#8A99A2" stroke-width="0.7" stroke-linecap="round" stroke-linejoin="round" stroke-miterlimit="10" x1="304.853" y1="104.896" x2="311.537" y2="104.896"/>
</g>
<path opacity="0.8" fill="none" stroke="#F09B84" stroke-width="0.8" stroke-linecap="round" stroke-linejoin="round" stroke-miterlimit="10" d="
	M260.486,106.954c0,0-10.204,39.443-36.442,43.559s-59.497-3.849-67.352-41.62"/>
<path opacity="0.8" fill="none" stroke="#8A99A2" stroke-width="0.7" stroke-linecap="round" stroke-linejoin="round" stroke-miterlimit="10" d="
	M212.477,117.072c0,0,11.773,44.187,39.606,45.274c32.944,1.286,41.287-46.646,41.287-55.392"/>
<path opacity="0.8" fill="none" stroke="#8A99A2" stroke-width="0.7" stroke-linecap="round" stroke-linejoin="round" stroke-miterlimit="10" d="
	M34.631,79.172c0,0,14.642,122.444,108.04,129.639c84.717,6.526,131.534-70.903,133.032-103.915"/>
<path opacity="0.8" fill="none" stroke="#F09B84" stroke-width="0.8" stroke-linecap="round" stroke-linejoin="round" stroke-miterlimit="10" d="
	M61.384,64.767c13.376,69.896,62.711,154.342,134.449,154.342c54.534,0.001,92.311-63.795,94.874-112.155"/>
<path opacity="0.8" fill="none" stroke="#8A99A2" stroke-width="0.7" stroke-linecap="round" stroke-linejoin="round" stroke-miterlimit="10" d="
	M260.486,106.954c5.897,18.406,39.958,21.582,47.71,0"/>
<rect x="1493.333" y="74.371" opacity="0.8" fill="none" stroke="#8A99A2" stroke-width="0.7" stroke-linecap="round" stroke-linejoin="round" stroke-miterlimit="10" width="106.667" height="235.629"/>
<polyline opacity="0.8" fill="none" stroke="#8A99A2" stroke-width="0.7" stroke-linecap="round" stroke-linejoin="round" stroke-miterlimit="10" points="
	1409.517,64.651 1409.517,23.778 1493.333,74.371 1493.333,310 1409.517,259.408 1409.517,118.842 "/>
<polygon opacity="0.8" fill="none" stroke="#8A99A2" stroke-width="0.7" stroke-linecap="round" stroke-linejoin="round" stroke-miterlimit="10" points="
	1600,74.371 1493.333,74.371 1409.517,23.778 1516.184,23.778 "/>
<polyline opacity="0.8" fill="none" stroke="#8A99A2" stroke-width="0.7" stroke-linecap="round" stroke-linejoin="round" stroke-miterlimit="10" points="
	1600,133.278 1493.333,133.278 1452.737,108.774 "/>
<polyline opacity="0.8" fill="none" stroke="#8A99A2" stroke-width="0.7" stroke-linecap="round" stroke-linejoin="round" stroke-miterlimit="10" points="
	1600,192.185 1493.333,192.185 1409.517,141.593 "/>
<line opacity="0.8" fill="none" stroke="#8A99A2" stroke-width="0.7" stroke-linecap="round" stroke-linejoin="round" stroke-miterlimit="10" x1="1438.682" y1="218.105" x2="1409.517" y2="200.501"/>
<polyline opacity="0.8" fill="none" stroke="#8A99A2" stroke-width="0.7" stroke-linecap="round" stroke-linejoin="round" stroke-miterlimit="10" points="
	1600,251.093 1493.333,251.093 1481.959,244.227 "/>
<g opacity="0.8">
	<g id="XMLID_1_">
		<g>
		</g>
		<g>
			
				<path fill="none" stroke="#8A99A2" stroke-width="0.7" stroke-linecap="round" stroke-linejoin="round" stroke-miterlimit="10" d="
				M1440.604,66.465c6.469-0.712,12.716,8.552,13.318,22.747c0.655,15.645-5.579,28.416-13.318,27.944"/>
			
				<line fill="none" stroke="#8A99A2" stroke-width="0.7" stroke-linecap="round" stroke-linejoin="round" stroke-miterlimit="10" x1="1440.604" y1="66.465" x2="1370.95" y2="66.465"/>
			
				<polyline fill="none" stroke="#8A99A2" stroke-width="0.7" stroke-linecap="round" stroke-linejoin="round" stroke-miterlimit="10" points="
				1370.95,117.183 1440.604,117.183 1440.604,117.156 			"/>
		</g>
	</g>
	
		<path fill="#FFFFFF" stroke="#8A99A2" stroke-width="0.7" stroke-linecap="round" stroke-linejoin="round" stroke-miterlimit="10" d="
		M1383.391,89.215c0.717,16.969-6.671,30.555-15.316,27.544c-7.464-2.6-11.521-16.62-10.139-29.695
		c1.199-11.344,6.336-19.963,12.135-20.6C1376.545,65.753,1382.791,75.022,1383.391,89.215z"/>
</g>
<g opacity="0.8">
	<g id="XMLID_2_">
		<g>
		</g>
		<g>
			
				<path fill="none" stroke="#8A99A2" stroke-width="0.7" stroke-linecap="round" stroke-linejoin="round" stroke-miterlimit="10" d="
				M1474.33,219.309c3.724-0.41,7.32,4.924,7.667,13.095c0.377,9.007-3.212,16.359-7.667,16.087"/>
			
				<line fill="none" stroke="#8A99A2" stroke-width="0.7" stroke-linecap="round" stroke-linejoin="round" stroke-miterlimit="10" x1="1474.33" y1="219.309" x2="1438.474" y2="219.309"/>
			
				<polyline fill="none" stroke="#8A99A2" stroke-width="0.7" stroke-linecap="round" stroke-linejoin="round" stroke-miterlimit="10" points="
				1438.474,248.507 1474.33,248.507 1474.33,248.492 			"/>
		</g>
	</g>
	
		<path fill="#FFFFFF" stroke="#8A99A2" stroke-width="0.7" stroke-linecap="round" stroke-linejoin="round" stroke-miterlimit="10" d="
		M1445.635,232.407c0.413,9.769-3.84,17.591-8.818,15.857c-4.297-1.497-6.633-9.568-5.837-17.095
		c0.69-6.531,3.648-11.493,6.986-11.86C1441.694,218.899,1445.29,224.235,1445.635,232.407z"/>
</g>
<g>
	
		<polyline fill="none" stroke="#F09B84" stroke-width="0.8" stroke-linecap="round" stroke-linejoin="round" stroke-miterlimit="10" points="
		1406.929,102.279 1394.997,91.805 1406.929,81.33 	"/>
	
		<polyline fill="none" stroke="#F09B84" stroke-width="0.8" stroke-linecap="round" stroke-linejoin="round" stroke-miterlimit="10" points="
		1423.779,81.33 1435.712,91.805 1423.779,102.279 	"/>
	
		<line fill="none" stroke="#F09B84" stroke-width="0.8" stroke-linecap="round" stroke-linejoin="round" stroke-miterlimit="10" x1="1420.669" y1="79.561" x2="1410.039" y2="104.049"/>
</g>
<g>
	<path fill="none" stroke="#F09B84" stroke-width="0.8" stroke-linecap="round" stroke-linejoin="round" stroke-miterlimit="10" d="
		M1456.433,223.568c-1.782,0-3.226,1.444-3.226,3.226v3.878c0,1.782-1.444,3.226-3.226,3.226v-0.001
		c1.782,0,3.226,1.444,3.226,3.226v3.878c0,1.782,1.444,3.226,3.226,3.226"/>
	<path fill="none" stroke="#F09B84" stroke-width="0.8" stroke-linecap="round" stroke-linejoin="round" stroke-miterlimit="10" d="
		M1467.015,244.227c1.782,0,3.226-1.444,3.226-3.226v-3.878c0-1.782,1.444-3.226,3.226-3.226v0c-1.782,0-3.226-1.444-3.226-3.226
		v-3.878c0-1.782-1.444-3.226-3.226-3.226"/>
</g>
<g opacity="0.8">
	<g id="XMLID_3_">
		<g>
		</g>
		<g>
			
				<path fill="none" stroke="#8A99A2" stroke-width="0.7" stroke-linecap="round" stroke-linejoin="round" stroke-miterlimit="10" d="
				M1370.459,86.822c1.272-0.14,2.5,1.682,2.619,4.473c0.131,3.078-1.094,5.591-2.619,5.495"/>
			
				<line fill="none" stroke="#8A99A2" stroke-width="0.7" stroke-linecap="round" stroke-linejoin="round" stroke-miterlimit="10" x1="1370.459" y1="86.822" x2="1369.048" y2="86.822"/>
			
				<polyline fill="none" stroke="#8A99A2" stroke-width="0.7" stroke-linecap="round" stroke-linejoin="round" stroke-miterlimit="10" points="
				1369.048,96.795 1370.459,96.795 1370.459,96.79 			"/>
		</g>
	</g>
	<path fill="none" stroke="#8A99A2" stroke-width="0.7" stroke-linecap="round" stroke-linejoin="round" stroke-miterlimit="10" d="
		M1371.495,91.296c0.141,3.337-1.312,6.008-3.012,5.416c-1.468-0.511-2.266-3.268-1.994-5.839c0.236-2.231,1.246-3.926,2.386-4.051
		C1370.149,86.682,1371.378,88.505,1371.495,91.296z"/>
</g>
<g opacity="0.8">
	<g id="XMLID_4_">
		
			<path fill="none" stroke="#8A99A2" stroke-width="0.7" stroke-linecap="round" stroke-linejoin="round" stroke-miterlimit="10" d="
			M1438.693,237.852c1.209,0.072,2.181-1.919,2.077-4.359c-0.094-2.213-1.068-3.658-2.077-3.547"/>
		
			<line fill="none" stroke="#8A99A2" stroke-width="0.7" stroke-linecap="round" stroke-linejoin="round" stroke-miterlimit="10" x1="1437.574" y1="229.946" x2="1438.693" y2="229.946"/>
		
			<line fill="none" stroke="#8A99A2" stroke-width="0.7" stroke-linecap="round" stroke-linejoin="round" stroke-miterlimit="10" x1="1437.574" y1="237.855" x2="1438.693" y2="237.855"/>
	</g>
	<path fill="none" stroke="#8A99A2" stroke-width="0.7" stroke-linecap="round" stroke-linejoin="round" stroke-miterlimit="10" d="
		M1439.515,233.494c0.112,2.646-1.04,4.765-2.388,4.295c-1.164-0.405-1.797-2.592-1.581-4.631c0.187-1.769,0.988-3.113,1.892-3.212
		C1438.448,229.835,1439.422,231.28,1439.515,233.494z"/>
</g>
<g opacity="0.8">
	
		<circle fill="none" stroke="#8A99A2" stroke-width="0.7" stroke-linecap="round" stroke-linejoin="round" stroke-miterlimit="10" cx="1584.007" cy="96.235" r="3.881"/>
	
		<circle fill="none" stroke="#8A99A2" stroke-width="0.7" stroke-linecap="round" stroke-linejoin="round" stroke-miterlimit="10" cx="1584.007" cy="113.159" r="3.881"/>
</g>
<g opacity="0.8">
	
		<circle fill="none" stroke="#8A99A2" stroke-width="0.7" stroke-linecap="round" stroke-linejoin="round" stroke-miterlimit="10" cx="1584.007" cy="155.556" r="3.881"/>
	
		<circle fill="none" stroke="#8A99A2" stroke-width="0.7" stroke-linecap="round" stroke-linejoin="round" stroke-miterlimit="10" cx="1584.007" cy="172.48" r="3.881"/>
</g>
<g opacity="0.8">
	
		<circle fill="none" stroke="#8A99A2" stroke-width="0.7" stroke-linecap="round" stroke-linejoin="round" stroke-miterlimit="10" cx="1584.007" cy="215.106" r="3.881"/>
	
		<circle fill="none" stroke="#8A99A2" stroke-width="0.7" stroke-linecap="round" stroke-linejoin="round" stroke-miterlimit="10" cx="1584.007" cy="232.03" r="3.881"/>
</g>
<g opacity="0.8">
	
		<circle fill="none" stroke="#8A99A2" stroke-width="0.7" stroke-linecap="round" stroke-linejoin="round" stroke-miterlimit="10" cx="1584.007" cy="271.595" r="3.881"/>
	
		<circle fill="none" stroke="#8A99A2" stroke-width="0.7" stroke-linecap="round" stroke-linejoin="round" stroke-miterlimit="10" cx="1584.007" cy="288.519" r="3.881"/>
</g>
<polyline opacity="0.8" fill="none" stroke="#8A99A2" stroke-width="0.7" stroke-linecap="round" stroke-linejoin="round" stroke-miterlimit="10" points="
	1408.228,222.864 1348.976,222.864 1348.976,222.864 1408.225,258.628 "/>
<rect x="1348.425" y="222.711" transform="matrix(0.8561 0.5168 -0.5168 0.8561 309.1352 -664.9323)" opacity="0.8" fill="none" stroke="#8A99A2" stroke-width="0.7" stroke-linecap="round" stroke-linejoin="round" stroke-miterlimit="10" width="0.593" height="0"/>
<g>
	<g>
		
			<path fill="none" stroke="#F09B84" stroke-width="1.0721" stroke-linecap="round" stroke-linejoin="round" stroke-miterlimit="10" d="
			M1405.326,192.185c-5.773,4.425-13.322,6.491-21.043,5.088c-14.522-2.639-24.154-16.551-21.515-31.072"/>
		
			<path fill="none" stroke="#F09B84" stroke-width="1.0721" stroke-linecap="round" stroke-linejoin="round" stroke-miterlimit="10" d="
			M1367.19,155.61c5.808-8.254,16.067-12.848,26.65-10.925c4.974,0.904,9.375,3.131,12.905,6.251"/>
		
			<polyline fill="none" stroke="#F09B84" stroke-width="1.0721" stroke-linecap="round" stroke-linejoin="round" stroke-miterlimit="10" points="
			1367.065,170.994 1362.761,166.201 1357.968,170.504 		"/>
	</g>
	<g>
		
			<path fill="#FFFFFF" stroke="#F09B84" stroke-width="1.0721" stroke-linecap="round" stroke-linejoin="round" stroke-miterlimit="10" d="
			M1385.04,171.573c-4.336,0-7.852,3.392-7.852,7.575v7.432h23.741v-7.432c0-4.184-3.515-7.575-7.852-7.575"/>
		
			<path fill="#FFFFFF" stroke="#F09B84" stroke-width="1.0721" stroke-linecap="round" stroke-linejoin="round" stroke-miterlimit="10" d="
			M1395.34,166.853c0,3.347-2.812,6.06-6.281,6.06s-6.281-2.713-6.281-6.06v-5.414c0-3.347,2.812-6.06,6.281-6.06
			s6.281,2.713,6.281,6.06V166.853z"/>
	</g>
</g>
<g>
	
		<path fill="#FFFFFF" stroke="#F09B84" stroke-width="0.8" stroke-linecap="round" stroke-linejoin="round" stroke-miterlimit="10" d="
		M655.227,233.073l-2.283-2.283h-10.571c-0.789,0-1.436,0.646-1.436,1.436v8.548c0,0.79,0.646,1.436,1.436,1.436h13.703v-7.085
		C656.077,234.354,655.771,233.617,655.227,233.073z"/>
	
		<path fill="#FFFFFF" stroke="#F09B84" stroke-width="0.8" stroke-linecap="round" stroke-linejoin="round" stroke-miterlimit="10" d="
		M628.54,213.563h-37.977c-2.297,0-4.176,1.879-4.176,4.176v31.974c0,2.297,1.879,4.176,4.176,4.176h4.597
		c0-2.883,2.337-5.22,5.22-5.22c2.883,0,5.22,2.337,5.22,5.22h27.116v-36.15C632.717,215.442,630.837,213.563,628.54,213.563z"/>
	
		<circle fill="#FFFFFF" stroke="#F09B84" stroke-width="0.8" stroke-linecap="round" stroke-linejoin="round" stroke-miterlimit="10" cx="600.38" cy="253.889" r="5.22"/>
	
		<path fill="#FFFFFF" stroke="#F09B84" stroke-width="0.8" stroke-linecap="round" stroke-linejoin="round" stroke-miterlimit="10" d="
		M642.374,242.209c-0.789,0-1.436-0.646-1.436-1.436v-8.548c0-0.79,0.646-1.436,1.436-1.436h10.571l-3.717-3.718
		c-0.544-0.544-1.282-0.85-2.051-0.85h-11.558c-1.602,0-2.901,1.299-2.901,2.901v24.766h6.46c0-2.883,2.337-5.22,5.22-5.22
		c2.883,0,5.22,2.337,5.22,5.22h3.559c1.602,0,2.901-1.299,2.901-2.901v-8.779H642.374z"/>
	
		<circle fill="#FFFFFF" stroke="#F09B84" stroke-width="0.8" stroke-linecap="round" stroke-linejoin="round" stroke-miterlimit="10" cx="644.397" cy="253.889" r="5.22"/>
</g>
<g>
	<g id="XMLID_5_">
		
			<path fill="#FFFFFF" stroke="#8A99A2" stroke-width="0.7" stroke-linecap="round" stroke-linejoin="round" stroke-miterlimit="10" d="
			M425.096,166.329c1.74,0,3.17,1.43,3.17,3.17c0,0.87-0.36,1.66-0.93,2.24c-0.58,0.57-1.37,0.93-2.24,0.93h-23.71
			c-1.74,0-3.17-1.43-3.17-3.17c0-0.87,0.36-1.66,0.93-2.24c0.58-0.57,1.37-0.93,2.24-0.93h10.93v0.29c0,0.51,0.41,0.92,0.93,0.92
			c0.51,0,0.92-0.41,0.92-0.92v-0.29H425.096z"/>
		
			<path fill="#FFFFFF" stroke="#8A99A2" stroke-width="0.7" stroke-linecap="round" stroke-linejoin="round" stroke-miterlimit="10" d="
			M414.166,166.329v-29.2c0-0.51-0.41-0.93-0.92-0.93c-0.52,0-0.93,0.42-0.93,0.93v29.2v0.29c0,0.51,0.41,0.92,0.93,0.92
			c0.51,0,0.92-0.41,0.92-0.92V166.329z"/>
	</g>
	<g>
		
			<path fill="#FFFFFF" stroke="#F09B84" stroke-width="0.8" stroke-linecap="round" stroke-linejoin="round" stroke-miterlimit="10" d="
			M414.898,97.437l6.89,13.962c0.269,0.545,0.789,0.923,1.391,1.011l15.407,2.239c1.515,0.22,2.12,2.082,1.024,3.151l-11.149,10.868
			c-0.435,0.424-0.634,1.036-0.531,1.635l2.632,15.345c0.259,1.509-1.325,2.66-2.681,1.948l-13.781-7.245
			c-0.538-0.283-1.181-0.283-1.719,0l-13.781,7.245c-1.355,0.713-2.939-0.438-2.681-1.948l2.632-15.345
			c0.103-0.599-0.096-1.211-0.531-1.635l-11.149-10.868c-1.096-1.069-0.491-2.931,1.024-3.151l15.408-2.239
			c0.602-0.087,1.122-0.465,1.391-1.011l6.89-13.962C412.262,96.064,414.22,96.064,414.898,97.437z"/>
		
			<path fill="#FFFFFF" stroke="#F09B84" stroke-width="0.8" stroke-linecap="round" stroke-linejoin="round" stroke-miterlimit="10" d="
			M421.397,125.791l-12.079,6.975c-0.738,0.426-1.661-0.106-1.661-0.959v-13.95c0-0.852,0.923-1.385,1.661-0.959l12.079,6.975
			C422.135,124.3,422.135,125.365,421.397,125.791z"/>
	</g>
</g>
<line opacity="0.8" fill="none" stroke="#8A99A2" stroke-width="0.6657" stroke-linecap="round" stroke-linejoin="round" stroke-miterlimit="10" x1="260.486" y1="90.394" x2="260.486" y2="56.277"/>
<line opacity="0.8" fill="none" stroke="#8A99A2" stroke-width="0.6657" stroke-linecap="round" stroke-linejoin="round" stroke-miterlimit="10" x1="275.703" y1="90.394" x2="275.703" y2="56.277"/>
<line opacity="0.8" fill="none" stroke="#8A99A2" stroke-width="0.6657" stroke-linecap="round" stroke-linejoin="round" stroke-miterlimit="10" x1="291.949" y1="90.394" x2="291.949" y2="56.277"/>
<line opacity="0.8" fill="none" stroke="#8A99A2" stroke-width="0.6657" stroke-linecap="round" stroke-linejoin="round" stroke-miterlimit="10" x1="308.195" y1="90.394" x2="308.195" y2="56.277"/>
<line opacity="0.8" fill="none" stroke="#8A99A2" stroke-width="0.7" stroke-linecap="round" stroke-linejoin="round" stroke-miterlimit="10" x1="412.782" y1="193.386" x2="496.519" y2="142.794"/>
<line opacity="0.8" fill="none" stroke="#8A99A2" stroke-width="0.7" stroke-linecap="round" stroke-linejoin="round" stroke-miterlimit="10" x1="426.745" y1="205.592" x2="510.369" y2="155"/>
<line opacity="0.8" fill="none" stroke="#8A99A2" stroke-width="0.7" stroke-linecap="round" stroke-linejoin="round" stroke-miterlimit="10" x1="328.742" y1="194.182" x2="412.229" y2="143.75"/>
<path opacity="0.8" fill="#FFFFFF" stroke="#8A99A2" stroke-width="0.7" stroke-linecap="round" stroke-linejoin="round" stroke-miterlimit="10" d="
	M326.376,218.649h93.915V310h6.454V207.349c0-7.712-6.252-13.963-13.963-13.963h-78.896c-7.712,0-13.963,6.252-13.963,13.963V310
	h6.454V218.649z M373.333,202.797c0.69,0,1.249,0.559,1.249,1.249s-0.559,1.249-1.249,1.249s-1.249-0.559-1.249-1.249
	S372.644,202.797,373.333,202.797z M366.912,208.953h12.842c0.525,0,0.951,0.426,0.951,0.951c0,0.525-0.426,0.951-0.951,0.951
	h-12.842c-0.525,0-0.951-0.426-0.951-0.951C365.961,209.378,366.387,208.953,366.912,208.953z M358.728,208.109
	c0.976,0,1.767,0.791,1.767,1.767c0,0.976-0.791,1.767-1.767,1.767c-0.976,0-1.767-0.791-1.767-1.767
	C356.961,208.901,357.752,208.109,358.728,208.109z"/>
<circle opacity="0.8" fill="#FFFFFF" stroke="#8A99A2" stroke-width="0.7" stroke-linecap="round" stroke-linejoin="round" stroke-miterlimit="10" cx="358.728" cy="209.877" r="1.767"/>
<circle opacity="0.8" fill="#FFFFFF" stroke="#8A99A2" stroke-width="0.7" stroke-linecap="round" stroke-linejoin="round" stroke-miterlimit="10" cx="373.333" cy="204.046" r="1.249"/>
<path opacity="0.8" fill="#FFFFFF" stroke="#8A99A2" stroke-width="0.7" stroke-linecap="round" stroke-linejoin="round" stroke-miterlimit="10" d="
	M366.912,210.855h12.842c0.525,0,0.951-0.426,0.951-0.951c0-0.525-0.426-0.951-0.951-0.951h-12.842
	c-0.525,0-0.951,0.426-0.951,0.951C365.961,210.429,366.387,210.855,366.912,210.855z"/>
<path opacity="0.8" fill="#FFFFFF" stroke="#8A99A2" stroke-width="0.7" stroke-linecap="round" stroke-linejoin="round" stroke-miterlimit="10" d="
	M326.376,218.649V310h22.062c1.066-9.998-3.243-19.078-0.391-29.167c3.026-10.705,13.198-8.948,13.198-8.948
	s1.566-8.948,19.237-6.711c15.85,2.006,20.356,12.75,19.014,25.725c-0.537,5.194-1.166,12.328-0.023,19.101h20.819v-91.351H326.376z
	 M392.11,266.608V221.43h25.4v45.178H392.11z"/>
<path opacity="0.8" fill="#FFFFFF" stroke="#8A99A2" stroke-width="0.5" stroke-linecap="round" stroke-linejoin="round" stroke-miterlimit="10" d="
	M392.11,221.43v45.178h25.4V221.43H392.11z M392.369,259.365c1.069-0.467,2.268-0.684,4.255-0.808
	c3.621-0.227,5.359-1.134,5.613-2.575c0.199-1.126-0.424-1.906-0.424-1.906c-1.098-0.845-2.729-2.166-3.822-4.786l0.006,0.027
	c-1.613-0.607-2.369-1.68-2.708-3.46c-0.339-1.779,1.595-1.631,1.595-1.631c-0.409-6.227,2.09-7.434,2.09-7.434
	c-0.085-3.431,3.47-1.546,6.011-2.224s3.648-2.859,3.648-2.859s2.769,1.271,1.881,5.083c0,0,2.499,1.207,2.09,7.434
	c0,0,1.934-0.148,1.595,1.631c-0.339,1.779-1.094,2.852-2.708,3.46l0.009-0.043c-1.097,2.63-2.738,3.955-3.838,4.801
	c0,0-0.635,0.78-0.436,1.906c0.254,1.44,1.993,2.348,5.613,2.575c1.986,0.124,3.198,0.34,4.268,0.807L392.369,259.365z"/>
<path opacity="0.8" fill="#FFFFFF" stroke="#8A99A2" stroke-width="0.7" stroke-linecap="round" stroke-linejoin="round" stroke-miterlimit="10" d="
	M394.115,299.624c-0.266,4.044-0.925,7.464-1.831,10.376h7.188c-1.143-6.773-0.514-13.907,0.023-19.101
	c1.342-12.974-3.164-23.718-19.014-25.725c-17.672-2.237-19.237,6.711-19.237,6.711s-10.172-1.757-13.198,8.948
	c-2.852,10.089,1.457,19.17,0.391,29.167h5.995c-0.903-2.912-1.56-6.332-1.826-10.376"/>
<path opacity="0.8" fill="#FFFFFF" stroke="#8A99A2" stroke-width="0.7" stroke-linecap="round" stroke-linejoin="round" stroke-miterlimit="10" d="
	M392.284,310c0.906-2.912,1.565-6.332,1.831-10.376"/>
<path opacity="0.8" fill="#FFFFFF" stroke="#8A99A2" stroke-width="0.5" stroke-linecap="round" stroke-linejoin="round" stroke-miterlimit="10" d="
	M395.29,245.858c0.339,1.779,1.094,2.852,2.708,3.46l-0.006-0.027c-0.552-1.322-0.969-2.969-1.106-5.063
	C396.886,244.227,394.951,244.079,395.29,245.858z"/>
<path opacity="0.8" fill="#FFFFFF" stroke="#8A99A2" stroke-width="0.5" stroke-linecap="round" stroke-linejoin="round" stroke-miterlimit="10" d="
	M411.495,249.318c1.613-0.607,2.369-1.68,2.708-3.46c0.339-1.779-1.595-1.631-1.595-1.631c-0.137,2.086-0.553,3.728-1.103,5.048
	L411.495,249.318z"/>
<path opacity="0.8" fill="#FFFFFF" stroke="#8A99A2" stroke-width="0.5" stroke-linecap="round" stroke-linejoin="round" stroke-miterlimit="10" d="
	M407.23,255.982c-0.199-1.126,0.436-1.906,0.436-1.906c1.1-0.846,2.741-2.171,3.838-4.801l1.103-5.048
	c0.409-6.227-2.09-7.434-2.09-7.434c0.887-3.813-1.881-5.083-1.881-5.083s-1.107,2.182-3.648,2.859s-6.096-1.207-6.011,2.224
	c0,0-2.499,1.207-2.09,7.434l1.106,5.063c1.093,2.62,2.724,3.941,3.822,4.786c0,0,0.622,0.78,0.424,1.906
	c-0.254,1.44-1.993,2.348-5.613,2.575c-1.987,0.124-3.186,0.341-4.255,0.808l24.742-0.001c-1.069-0.467-2.282-0.683-4.268-0.807
	C409.223,258.33,407.484,257.423,407.23,255.982z"/>
<path opacity="0.8" fill="#FFFFFF" stroke="#8A99A2" stroke-width="0.5" stroke-linecap="round" stroke-linejoin="round" stroke-miterlimit="10" d="
	M397.992,249.291l-1.106-5.063C397.023,246.322,397.44,247.969,397.992,249.291z"/>
<path opacity="0.8" fill="#FFFFFF" stroke="#8A99A2" stroke-width="0.5" stroke-linecap="round" stroke-linejoin="round" stroke-miterlimit="10" d="
	M412.607,244.227l-1.103,5.048C412.054,247.955,412.47,246.314,412.607,244.227z"/>
<g opacity="0.8">
	
		<line fill="#FFFFFF" stroke="#8A99A3" stroke-width="0.5" stroke-miterlimit="10" x1="497.451" y1="189.672" x2="475.821" y2="211.302"/>
	
		<line fill="#FFFFFF" stroke="#8A99A3" stroke-width="0.5" stroke-miterlimit="10" x1="488.034" y1="187.756" x2="478.131" y2="197.659"/>
</g>
<g opacity="0.8">
	
		<line fill="#FFFFFF" stroke="#8A99A3" stroke-width="0.5" stroke-miterlimit="10" x1="406.066" y1="34.845" x2="384.435" y2="56.476"/>
	
		<line fill="#FFFFFF" stroke="#8A99A3" stroke-width="0.5" stroke-miterlimit="10" x1="396.649" y1="32.929" x2="386.746" y2="42.832"/>
</g>
<polygon fill="#FFFFFF" stroke="#DA4F21" stroke-width="0.7" stroke-linecap="round" stroke-linejoin="round" stroke-miterlimit="10" points="
	1229.71,242.418 1280,293.01 1386.667,293.01 1319.614,242.418 "/>
<g>
	<g>
		
			<polygon fill="#FFFFFF" stroke="#8A99A2" stroke-width="0.7" stroke-linecap="round" stroke-linejoin="round" stroke-miterlimit="10" points="
			1291.724,233.038 1304.185,225.898 1316.647,233.038 1316.759,247.428 1304.336,254.613 1291.837,247.495 		"/>
		
			<polyline fill="#FFFFFF" stroke="#8A99A2" stroke-width="0.7" stroke-linecap="round" stroke-linejoin="round" stroke-miterlimit="10" points="
			1316.647,233.038 1304.185,240.177 1291.724,233.038 		"/>
		
			<line fill="#FFFFFF" stroke="#8A99A2" stroke-width="0.7" stroke-linecap="round" stroke-linejoin="round" stroke-miterlimit="10" x1="1304.185" y1="240.177" x2="1304.336" y2="254.613"/>
	</g>
	<g>
		
			<polygon fill="#FFFFFF" stroke="#8A99A2" stroke-width="0.7" stroke-linecap="round" stroke-linejoin="round" stroke-miterlimit="10" points="
			1304.336,254.613 1316.759,247.428 1329.333,254.514 1329.333,268.958 1316.872,276.153 1304.41,268.958 		"/>
		
			<polyline fill="#FFFFFF" stroke="#8A99A2" stroke-width="0.7" stroke-linecap="round" stroke-linejoin="round" stroke-miterlimit="10" points="
			1329.333,254.514 1316.872,261.654 1304.336,254.613 		"/>
		
			<line fill="#FFFFFF" stroke="#8A99A2" stroke-width="0.7" stroke-linecap="round" stroke-linejoin="round" stroke-miterlimit="10" x1="1316.872" y1="261.654" x2="1316.872" y2="276.153"/>
	</g>
	<g>
		
			<polygon fill="#FFFFFF" stroke="#8A99A2" stroke-width="0.7" stroke-linecap="round" stroke-linejoin="round" stroke-miterlimit="10" points="
			1279.49,254.648 1291.837,247.495 1304.336,254.613 1304.413,269.093 1291.951,276.287 1279.49,269.093 		"/>
		
			<polyline fill="#FFFFFF" stroke="#8A99A2" stroke-width="0.7" stroke-linecap="round" stroke-linejoin="round" stroke-miterlimit="10" points="
			1304.336,254.613 1291.951,261.788 1279.49,254.648 		"/>
		
			<line fill="#FFFFFF" stroke="#8A99A2" stroke-width="0.7" stroke-linecap="round" stroke-linejoin="round" stroke-miterlimit="10" x1="1291.951" y1="261.788" x2="1291.951" y2="276.287"/>
	</g>
</g>
<line opacity="0.8" fill="none" stroke="#8A99A2" stroke-width="0.7" stroke-linecap="round" stroke-linejoin="round" stroke-miterlimit="10" x1="1368.971" y1="91.804" x2="1437.737" y2="233.897"/>
<g>
	<g>
		
			<polyline fill="#FFFFFF" stroke="#8897A0" stroke-width="1.0721" stroke-linecap="round" stroke-linejoin="round" stroke-miterlimit="10" points="
			1673.759,280.331 1696.219,199.862 1718.68,280.331 		"/>
		
			<line fill="#FFFFFF" stroke="#8897A0" stroke-width="1.0721" stroke-linecap="round" stroke-linejoin="round" stroke-miterlimit="10" x1="1682.649" y1="248.48" x2="1709.789" y2="248.48"/>
		
			<line fill="#FFFFFF" stroke="#8897A0" stroke-width="1.0721" stroke-linecap="round" stroke-linejoin="round" stroke-miterlimit="10" x1="1689.221" y1="224.935" x2="1703.217" y2="224.935"/>
		
			<line fill="#FFFFFF" stroke="#8897A0" stroke-width="1.0721" stroke-linecap="round" stroke-linejoin="round" stroke-miterlimit="10" x1="1682.649" y1="248.48" x2="1716.26" y2="272.025"/>
		
			<line fill="#FFFFFF" stroke="#8897A0" stroke-width="1.0721" stroke-linecap="round" stroke-linejoin="round" stroke-miterlimit="10" x1="1709.789" y1="248.48" x2="1676.077" y2="272.025"/>
		
			<line fill="#FFFFFF" stroke="#8897A0" stroke-width="1.0721" stroke-linecap="round" stroke-linejoin="round" stroke-miterlimit="10" x1="1689.221" y1="224.935" x2="1709.789" y2="248.48"/>
		
			<line fill="#FFFFFF" stroke="#8897A0" stroke-width="1.0721" stroke-linecap="round" stroke-linejoin="round" stroke-miterlimit="10" x1="1703.217" y1="224.935" x2="1682.649" y2="248.48"/>
		<g>
			
				<polyline fill="#FFFFFF" stroke="#F09B84" stroke-width="1.0721" stroke-linecap="round" stroke-linejoin="round" stroke-miterlimit="10" points="
				1663.057,190.563 1670.89,161.176 1701.467,167.27 			"/>
			<g>
				
					<circle fill="#FFFFFF" stroke="#F09B84" stroke-width="1.0721" stroke-linecap="round" stroke-linejoin="round" stroke-miterlimit="10" cx="1693.602" cy="197.616" r="6.998"/>
				
					<path fill="#FFFFFF" stroke="#F09B84" stroke-width="1.0721" stroke-linecap="round" stroke-linejoin="round" stroke-miterlimit="10" d="
					M1638.614,203.553c17.665,5.77,37.642,4.11,54.778-6.282s27.843-27.339,30.892-45.671L1638.614,203.553z"/>
			</g>
			
				<circle fill="#FFFFFF" stroke="#F09B84" stroke-width="1.0721" stroke-linecap="round" stroke-linejoin="round" stroke-miterlimit="10" cx="1670.89" cy="161.176" r="3.3"/>
		</g>
	</g>
	
		<line opacity="0.8" fill="#FFFFFF" stroke="#F09B84" stroke-width="1.0721" stroke-linecap="round" stroke-linejoin="round" stroke-miterlimit="10" x1="1669.179" y1="158.355" x2="1657.333" y2="139.667"/>
	
		<circle opacity="0.8" fill="#FFFFFF" stroke="#F09B84" stroke-width="1.0721" stroke-linecap="round" stroke-linejoin="round" stroke-miterlimit="10" cx="1657.206" cy="139.465" r="1.711"/>
</g>
<g>
	
		<polyline fill="none" stroke="#F09B84" stroke-width="1.0972" stroke-linecap="round" stroke-linejoin="round" stroke-miterlimit="10" points="
		1550.533,19.136 1540.565,29.034 1536.284,24.784 1526.315,34.682 1522.035,30.432 1512.066,40.33 1507.785,36.079 
		1502.031,41.792 	"/>
	
		<polyline fill="none" stroke="#F09B84" stroke-width="1.0972" stroke-linecap="round" stroke-linejoin="round" stroke-miterlimit="10" points="
		1542.544,19.136 1550.533,19.136 1550.533,27.069 	"/>
	
		<rect x="1538.697" y="32.557" fill="#FFFFFF" stroke="#F09B84" stroke-width="1.0972" stroke-linecap="round" stroke-linejoin="round" stroke-miterlimit="10" width="3.847" height="27.025"/>
	
		<rect x="1524.448" y="38.153" fill="#FFFFFF" stroke="#F09B84" stroke-width="1.0972" stroke-linecap="round" stroke-linejoin="round" stroke-miterlimit="10" width="3.847" height="21.429"/>
	
		<rect x="1510.198" y="46.064" fill="#FFFFFF" stroke="#F09B84" stroke-width="1.0972" stroke-linecap="round" stroke-linejoin="round" stroke-miterlimit="10" width="3.847" height="13.518"/>
	
		<line fill="#FFFFFF" stroke="#F09B84" stroke-width="1.0972" stroke-linecap="round" stroke-linejoin="round" stroke-miterlimit="10" x1="1502.209" y1="59.582" x2="1550.533" y2="59.582"/>
</g>
</svg>
