<svg data-noselect="" viewBox="0 0 400 300" width="150" height="100" preserveAspectRatio="none" version="1.1" xmlns="http://www.w3.org/2000/svg" style="background: rgba(255, 255, 255, 0);"><defs></defs> <g id="shape_m4tnd3MXNY" transform="translate(106.11510791366908,32.37410071942446) rotate(0,87,87) scale(1.079136690647482,1.079136690647482)" filter="" style="cursor: move; opacity: 1;"><g><rect fill="rgba(0,0,0,0)" width="194" height="194" x="-10" y="-10"></rect><svg version="1.1" id="图层_1" xmlns="http://www.w3.org/2000/svg" xmlns:xlink="http://www.w3.org/1999/xlink" x="0px" y="0px" style="enable-background:new 0 0 283.46 283.46;" xml:space="preserve" viewBox="54.49199676513672 53.44400405883789 174.9219970703125 174.9239959716797" width="174" height="174" preserveAspectRatio="none" data-parent="shape_m4tnd3MXNY">
<g>
	<g>
		<path style="" d="M84.432,205.565c-1.933,0-3.5-1.567-3.5-3.5V79.744c0-1.933,1.567-3.5,3.5-3.5s3.5,1.567,3.5,3.5
			v122.322C87.932,203.999,86.364,205.565,84.432,205.565z" fill="#0DAC67"></path>
	</g>
	<g>
		<path style="" d="M112.57,223.045c-1.933,0-3.5-1.567-3.5-3.5V150.81c0-1.933,1.567-3.5,3.5-3.5h50.838
			c5.927,0,10.569-4.56,10.569-10.382c0-5.828-4.741-10.569-10.569-10.569H112.57c-1.933,0-3.5-1.567-3.5-3.5v-8.149
			c0-1.933,1.567-3.5,3.5-3.5s3.5,1.567,3.5,3.5v4.649h47.338c9.688,0,17.569,7.881,17.569,17.569
			c0,9.584-7.882,17.382-17.569,17.382H116.07v65.235C116.07,221.478,114.503,223.045,112.57,223.045z" fill="#009FE8"></path>
	</g>
	<g>
		<path style="" d="M170.912,102.16H112.57c-1.933,0-3.5-1.567-3.5-3.5s1.567-3.5,3.5-3.5h58.342
			c5.828,0,10.569-4.741,10.569-10.569s-4.741-10.569-10.569-10.569h-74.64c-1.933,0-3.5-1.567-3.5-3.5s1.567-3.5,3.5-3.5h74.64
			c9.688,0,17.569,7.881,17.569,17.569S180.6,102.16,170.912,102.16z" fill="#009FE8"></path>
	</g>
	<g>
		<circle style="" cx="112.57" cy="98.66" r="6.853" fill="#009FE8"></circle>
	</g>
	<g>
		<path style="" d="M84.43,205.567c-0.859,0-1.722-0.315-2.397-0.951c-17.503-16.467-27.541-39.689-27.541-63.711
			c0-24.022,10.038-47.245,27.541-63.712c1.407-1.326,3.624-1.257,4.947,0.151c1.325,1.408,1.258,3.623-0.15,4.948
			c-16.34,15.373-25.338,36.188-25.338,58.613c0,22.424,8.998,43.24,25.338,58.612c1.408,1.325,1.476,3.54,0.15,4.948
			C86.291,205.198,85.361,205.567,84.43,205.567z" fill="#0DAC67"></path>
	</g>
	<g>
		<path style="" d="M141.953,228.368c-10.536,0-20.839-1.854-30.621-5.511c-1.811-0.677-2.729-2.693-2.053-4.504
			c0.677-1.81,2.691-2.729,4.504-2.053c8.996,3.363,18.474,5.068,28.17,5.068c44.367,0,80.462-36.095,80.462-80.462
			s-36.095-80.462-80.462-80.462c-15.623,0-30.771,4.481-43.807,12.958c-1.619,1.054-3.788,0.595-4.843-1.026
			c-1.054-1.621-0.594-3.789,1.026-4.842c14.175-9.218,30.643-14.09,47.623-14.09c48.227,0,87.462,39.235,87.462,87.462
			S190.18,228.368,141.953,228.368z" fill="#009FE8"></path>
	</g>
</g>
</svg></g> <!----></g><g id="shapge_ytonD0yAS2" transform="translate(134.71223021582733,226.6187050359712) rotate(0,0,0) scale(1.079136690647482,1.079136690647482)" filter="" style="cursor: move; opacity: 1;"><g><svg xmlns="http://www.w3.org/2000/svg" version="1.1" xmlns:xlink="http://www.w3.org/1999/xlink" overflow="hidden" style="top:0; left: 0" width="121" height="38" viewBox="0 0 121 38.279999999999994" preserveAspectRatio="none" data-parent="shapge_ytonD0yAS2"><rect fill="rgba(0,0,0,0)" width="121" height="38"></rect> <rect opacity="0"></rect><g transform="translate(0 0)" data-width="116"><path fill="#0DAC67" d="M7.95-20.01L7.95-20.01L6.15-19.14L6.15-19.14Q5.77-20.01 5.18-21.17L5.18-21.17L5.18-21.17Q4.58-22.33 3.94-23.37L3.94-23.37L5.63-24.07L5.63-24.07Q6.29-23.05 6.93-21.95L6.93-21.95L6.93-21.95Q7.57-20.85 7.95-20.01ZM18.39-5.71L18.39-8.70L14.01-8.70L14.01-5.71L18.39-5.71ZM20.33-5.71L24.94-5.71L24.94-8.70L20.33-8.70L20.33-5.71ZM20.33-4.03L20.33-0.93L24.94-0.93L24.94-4.03L20.33-4.03ZM14.01-4.03L14.01-0.93L18.39-0.93L18.39-4.03L14.01-4.03ZM12.01-8.73L12.01-8.73L12.01-10.53L27.03-10.53L27.03 2.15L24.94 2.15L24.94 0.87L14.01 0.87L14.01 2.23L12.01 2.23L12.01-8.67L10.79-6.93L10.79-6.93Q10.29-7.54 9.43-8.48L9.43-8.48L9.43-8.48Q8.55-9.43 7.74-10.27L7.74-10.27L7.74 2.18L5.66 2.18L5.66-8.85L5.66-8.85Q3.74-6.84 1.77-5.42L1.77-5.42L1.77-5.42Q1.59-5.86 1.26-6.44L1.26-6.44L1.26-6.44Q0.93-7.02 0.67-7.37L0.67-7.37L0.67-7.37Q5.80-10.82 8.99-16.88L8.99-16.88L1.71-16.88L1.71-18.85L10.06-18.85L10.47-18.94L11.66-18.15L11.66-18.15Q10.41-14.91 8.32-12.04L8.32-12.04L8.32-12.04Q9.16-11.34 10.32-10.29L10.32-10.29L10.32-10.29Q11.48-9.25 12.01-8.73ZM15.46-14.09L23.66-14.09L23.66-17.28L15.46-17.28L15.46-14.09ZM13.51-12.38L13.51-19.02L25.69-19.02L25.69-12.38L13.51-12.38ZM11.89-21.00L11.89-22.85L27.20-22.85L27.20-21.00L11.89-21.00Z" transform="translate(0 25.52)"></path><path fill="#0DAC67" d="M6.70-5.71L9.51-6.76L9.92-4.84L9.92-4.84Q6.90-3.60 4.12-2.52L4.12-2.52L4.12-2.52Q2.99-2.06 2.00-1.68L2.00-1.68L1.31-3.80L1.31-3.80Q2.76-4.29 4.70-4.99L4.70-4.99L4.70-15.23L1.65-15.23L1.65-17.23L4.70-17.23L4.70-23.93L6.70-23.93L6.70-17.23L9.45-17.23L9.45-15.23L6.70-15.23L6.70-5.71ZM25.03-14.62L25.03-14.62L27.03-14.30L27.03-14.30Q25.61-8.64 22.97-4.52L22.97-4.52L22.97-4.52Q24.01-0.12 25.49-0.12L25.49-0.12L25.49-0.12Q26.33-0.12 26.45-4.87L26.45-4.87L26.45-4.87Q26.77-4.52 27.20-4.22L27.20-4.22L27.20-4.22Q27.64-3.92 28.04-3.77L28.04-3.77L28.04-3.77Q27.84-0.55 27.25 0.68L27.25 0.68L27.25 0.68Q26.65 1.91 25.23 1.91L25.23 1.91L25.23 1.91Q24.01 1.91 23.08 0.77L23.08 0.77L23.08 0.77Q22.16-0.38 21.49-2.44L21.49-2.44L21.49-2.44Q19.43 0.23 16.65 2.12L16.65 2.12L16.65 2.12Q16.41 1.80 15.95 1.33L15.95 1.33L15.95 1.33Q15.49 0.87 15.14 0.64L15.14 0.64L15.14 0.64Q18.53-1.48 20.85-4.84L20.85-4.84L20.85-4.84Q19.75-10.18 19.46-17.84L19.46-17.84L12.67-17.84L12.67-13.95L18.21-13.95L18.21-13.95Q18.21-13.95 18.21-13.85L18.21-13.85L18.21-13.85Q18.21-13.75 18.21-13.60L18.21-13.60L18.21-13.60Q18.21-13.46 18.20-13.33L18.20-13.33L18.20-13.33Q18.18-13.20 18.18-13.08L18.18-13.08L18.18-13.08Q18.13-8.21 17.98-6.05L17.98-6.05L17.98-6.05Q17.84-3.89 17.43-3.42L17.43-3.42L17.43-3.42Q16.96-2.70 15.95-2.61L15.95-2.61L15.95-2.61Q15.02-2.52 13.34-2.61L13.34-2.61L13.34-2.61Q13.31-3.05 13.18-3.55L13.18-3.55L13.18-3.55Q13.05-4.06 12.85-4.44L12.85-4.44L12.85-4.44Q14.56-4.35 15.11-4.35L15.11-4.35L15.11-4.35Q15.37-4.35 15.54-4.39L15.54-4.39L15.54-4.39Q15.72-4.44 15.81-4.64L15.81-4.64L15.81-4.64Q16.04-4.90 16.15-6.60L16.15-6.60L16.15-6.60Q16.27-8.29 16.33-12.12L16.33-12.12L12.67-12.12L12.67-10.85L12.67-10.85Q12.67-8.82 12.43-6.44L12.43-6.44L12.43-6.44Q12.18-4.06 11.40-1.78L11.40-1.78L11.40-1.78Q10.61 0.49 9.08 2.32L9.08 2.32L9.08 2.32Q8.82 2.00 8.34 1.59L8.34 1.59L8.34 1.59Q7.86 1.19 7.48 0.96L7.48 0.96L7.48 0.96Q8.90-0.73 9.60-2.76L9.60-2.76L9.60-2.76Q10.29-4.79 10.48-6.90L10.48-6.90L10.48-6.90Q10.67-9.02 10.67-10.88L10.67-10.88L10.67-19.84L19.40-19.84L19.40-19.84Q19.31-22.01 19.31-24.27L19.31-24.27L21.37-24.27L21.37-24.27Q21.37-22.01 21.40-19.84L21.40-19.84L25.29-19.84L25.29-19.84Q24.74-20.56 23.82-21.47L23.82-21.47L23.82-21.47Q22.91-22.39 21.95-23.14L21.95-23.14L23.40-24.07L23.40-24.07Q24.39-23.35 25.35-22.46L25.35-22.46L25.35-22.46Q26.30-21.58 26.85-20.82L26.85-20.82L25.40-19.84L27.52-19.84L27.52-17.84L21.46-17.84L21.46-17.84Q21.72-11.75 22.39-7.40L22.39-7.40L22.39-7.40Q24.10-10.61 25.03-14.62Z" transform="translate(29 25.52)"></path><path fill="#0DAC67" d="M23.40-17.92L23.40-20.04L19.05-20.04L19.05-17.92L23.40-17.92ZM19.05-14.01L23.40-14.01L23.40-16.15L19.05-16.15L19.05-14.01ZM9.57-17.92L17.02-17.92L17.02-20.04L11.46-20.04L11.46-21.75L17.02-21.75L17.02-24.13L19.05-24.13L19.05-21.75L25.35-21.75L25.35-17.92L27.35-17.92L27.35-16.15L25.35-16.15L25.35-12.27L19.05-12.27L19.05-10.09L25.90-10.09L25.90-8.44L19.05-8.44L19.05-6.09L26.97-6.09L26.97-4.32L19.05-4.32L19.05-1.45L17.02-1.45L17.02-4.32L9.83-4.32L9.83-6.09L17.02-6.09L17.02-8.44L11.05-8.44L11.05-10.09L17.02-10.09L17.02-12.27L11.25-12.27L11.25-14.01L17.02-14.01L17.02-16.15L9.57-16.15L9.57-17.92ZM8.12-14.41L8.50-14.47L9.71-14.12L9.71-14.12Q9.02-7.98 7.22-3.94L7.22-3.94L7.22-3.94Q8.64-2.55 10.43-1.78L10.43-1.78L10.43-1.78Q12.21-1.02 14.36-0.74L14.36-0.74L14.36-0.74Q16.50-0.46 18.97-0.46L18.97-0.46L18.97-0.46Q19.55-0.46 21.40-0.46L21.40-0.46L21.40-0.46Q23.26-0.46 25.11-0.48L25.11-0.48L25.11-0.48Q26.97-0.49 27.81-0.49L27.81-0.49L27.81-0.49Q27.55-0.09 27.32 0.48L27.32 0.48L27.32 0.48Q27.09 1.04 27.00 1.51L27.00 1.51L18.91 1.51L18.91 1.51Q14.88 1.51 11.73 0.74L11.73 0.74L11.73 0.74Q8.58-0.03 6.35-2.18L6.35-2.18L6.35-2.18Q4.79 0.46 2.76 2.06L2.76 2.06L2.76 2.06Q2.47 1.71 2.00 1.26L2.00 1.26L2.00 1.26Q1.54 0.81 1.16 0.58L1.16 0.58L1.16 0.58Q3.39-1.02 4.96-3.77L4.96-3.77L4.96-3.77Q3.36-5.92 2.35-9.34L2.35-9.34L3.94-9.98L3.94-9.98Q4.70-7.42 5.83-5.68L5.83-5.68L5.83-5.68Q7.02-8.58 7.57-12.50L7.57-12.50L2.87-12.50L2.87-12.50Q4.90-16.01 7.02-20.53L7.02-20.53L1.94-20.53L1.94-22.45L10.09-22.45L10.09-22.45Q8.12-18.33 6.06-14.41L6.06-14.41L8.12-14.41Z" transform="translate(58 25.52)"></path><path fill="#0DAC67" d="M21.37-21.20L16.27-21.20L16.27-19.98L16.27-19.98Q16.27-18.65 15.86-17.21L15.86-17.21L15.86-17.21Q15.46-15.78 14.36-14.47L14.36-14.47L14.36-14.47Q13.25-13.17 11.19-12.15L11.19-12.15L11.19-12.15Q10.96-12.50 10.54-12.99L10.54-12.99L10.54-12.99Q10.12-13.49 9.80-13.75L9.80-13.75L9.80-13.75Q11.69-14.62 12.64-15.67L12.64-15.67L12.64-15.67Q13.60-16.73 13.92-17.85L13.92-17.85L13.92-17.85Q14.24-18.97 14.24-20.04L14.24-20.04L14.24-23.23L23.40-23.23L23.40-16.50L23.40-16.50Q23.40-15.89 23.50-15.66L23.50-15.66L23.50-15.66Q23.61-15.43 23.93-15.43L23.93-15.43L25.93-15.43L25.93-15.43Q26.25-15.43 26.64-15.47L26.64-15.47L26.64-15.47Q27.03-15.52 27.29-15.57L27.29-15.57L27.29-15.57Q27.32-15.14 27.38-14.62L27.38-14.62L27.38-14.62Q27.43-14.09 27.49-13.72L27.49-13.72L27.49-13.72Q26.83-13.57 25.96-13.57L25.96-13.57L23.78-13.57L23.78-13.57Q22.30-13.57 21.84-14.27L21.84-14.27L21.84-14.27Q21.37-14.96 21.37-16.56L21.37-16.56L21.37-21.20ZM9.45-19.43L9.45-19.43L8.00-17.89L8.00-17.89Q7.28-18.85 6.05-20.10L6.05-20.10L6.05-20.10Q4.81-21.34 3.60-22.42L3.60-22.42L4.99-23.72L4.99-23.72Q6.21-22.74 7.45-21.53L7.45-21.53L7.45-21.53Q8.70-20.33 9.45-19.43ZM7.51-15.20L7.51-2.78L10.70-5.08L10.70-5.08Q10.85-4.64 11.06-4.13L11.06-4.13L11.06-4.13Q11.28-3.63 11.48-3.31L11.48-3.31L11.48-3.31Q8.96-1.45 7.67-0.46L7.67-0.46L7.67-0.46Q6.38 0.52 5.86 0.96L5.86 0.96L5.86 0.96Q5.34 1.39 5.13 1.62L5.13 1.62L5.13 1.62Q4.96 1.22 4.63 0.68L4.63 0.68L4.63 0.68Q4.29 0.15 3.97-0.17L3.97-0.17L3.97-0.17Q4.44-0.43 4.93-1.12L4.93-1.12L4.93-1.12Q5.42-1.80 5.42-2.78L5.42-2.78L5.42-13.14L1.36-13.14L1.36-15.20L7.51-15.20ZM23.32-9.51L23.32-9.51L14.27-9.51L14.27-9.51Q15.89-6.18 18.79-3.77L18.79-3.77L18.79-3.77Q21.72-6.09 23.32-9.51ZM24.33-11.54L24.71-11.63L26.04-11.02L26.04-11.02Q24.27-5.66 20.47-2.55L20.47-2.55L20.47-2.55Q23.64-0.52 27.84 0.41L27.84 0.41L27.84 0.41Q27.46 0.78 27.10 1.32L27.10 1.32L27.10 1.32Q26.74 1.86 26.51 2.32L26.51 2.32L26.51 2.32Q22.04 1.22 18.73-1.22L18.73-1.22L18.73-1.22Q15.20 1.13 10.99 2.26L10.99 2.26L10.99 2.26Q10.85 1.80 10.54 1.26L10.54 1.26L10.54 1.26Q10.24 0.73 9.92 0.35L9.92 0.35L9.92 0.35Q13.80-0.52 17.08-2.55L17.08-2.55L17.08-2.55Q14.04-5.39 12.24-9.37L12.24-9.37L12.64-9.51L11.17-9.51L11.17-11.54L24.33-11.54Z" transform="translate(87 25.52)"></path></g></svg></g> <!----></g>  <!----></svg>